# xmcd CD database file
#
# Track frame offsets:
#	150
#	14410
#	28907
#	42182
#	56764
#	70835
#	84852
#	98462
#	112827
#	125800
#	140632
#	154390
#	167607
#	181332
#	194137
#	206870
#	221092
#	235780
#	250267
#	263352
#	276665
#	289615
#	303157
#	316157
#
# Disc length: 4387 seconds
#
# Revision: 0
# Processed by: cddbd v1.5.2PL0 Copyright (c) Steve Scherf et al.
# Submitted via: CDex 1.70beta2
#
DISCID=60112118
DTITLE=Blind Willie McTell - Georgia Rag
DYEAR=1900
DGENRE=Blues
TTITLE0=Atlanta Strut
TTITLE1=Travelin' Blues
TTITLE2=Kind Mama
TTITLE3=Southern Can Is Mine
TTITLE4=Broke Down Engine Blues
TTITLE5=Stomp Down Rider
TTITLE6=Scarey Day Blues
TTITLE7=Experience Blues
TTITLE8=Paintful Blues
TTITLE9=Low Rider's Blues
TTITLE10=Georgia Rag
TTITLE11=Warm It up to Me
TTITLE12=It's Your Time to Worry
TTITLE13=It's a Good Little Thing
TTITLE14=You Was Born to Die
TTITLE15=Dirty Mistreater
TTITLE16=Savannah Mama
TTITLE17=Broke Down Engine
TTITLE18=Love Makin' Mama
TTITLE19=Death Room Blues #2
TTITLE20=Lord Send Me an Angel #1
TTITLE21=B and O Blues No 2 #1
TTITLE22=Bell St Lightnin'
TTITLE23=East St Louis Blues (Fare You Well)
EXTD=
EXTT0=
EXTT1=
EXTT2=
EXTT3=
EXTT4=
EXTT5=
EXTT6=
EXTT7=
EXTT8=
EXTT9=
EXTT10=
EXTT11=
EXTT12=
EXTT13=
EXTT14=
EXTT15=
EXTT16=
EXTT17=
EXTT18=
EXTT19=
EXTT20=
EXTT21=
EXTT22=
EXTT23=
PLAYORDER=
